<svg xmlns="http://www.w3.org/2000/svg" viewBox="0 0 800 600" width="800" height="600">
  <!-- Base of Enterprise Cube -->
  <rect x="150" y="400" width="500" height="60" rx="12" fill="#3498db" />
  
  <!-- Main Body of Enterprise Cube -->
  <rect x="175" y="150" width="450" height="250" rx="15" fill="#2c3e50" />
  
  <!-- Multiple Display Screens -->
  <rect x="200" y="170" width="200" height="120" rx="5" fill="#ecf0f1" />
  <rect x="210" y="180" width="180" height="100" rx="3" fill="#34495e" />
  
  <rect x="200" y="300" width="200" height="80" rx="5" fill="#ecf0f1" />
  <rect x="210" y="310" width="180" height="60" rx="3" fill="#34495e" />
  
  <rect x="410" y="170" width="190" height="210" rx="5" fill="#ecf0f1" />
  <rect x="420" y="180" width="170" height="190" rx="3" fill="#34495e" />
  
  <!-- Interface Elements on Main Screen -->
  <rect x="430" y="190" width="150" height="20" rx="3" fill="#3498db" />
  <rect x="430" y="220" width="90" height="15" rx="2" fill="#ecf0f1" />
  <rect x="430" y="245" width="150" height="15" rx="2" fill="#ecf0f1" />
  <rect x="430" y="270" width="120" height="15" rx="2" fill="#ecf0f1" />
  <rect x="430" y="295" width="150" height="15" rx="2" fill="#ecf0f1" />
  <rect x="430" y="320" width="90" height="15" rx="2" fill="#ecf0f1" />
  <rect x="430" y="345" width="120" height="15" rx="2" fill="#ecf0f1" />
  
  <!-- Control Panel -->
  <rect x="220" y="195" width="160" height="70" rx="3" fill="#2c3e50" opacity="0.7" />
  <circle cx="250" cy="220" r="12" fill="#e74c3c" />
  <circle cx="290" cy="220" r="12" fill="#f1c40f" />
  <circle cx="330" cy="220" r="12" fill="#2ecc71" />
  <rect x="240" y="245" width="120" height="10" rx="2" fill="#ecf0f1" />
  
  <!-- Data Visualization on Second Screen -->
  <path d="M230,340 L250,325 L270,335 L290,320 L310,330 L330,315 L350,340" stroke="#3498db" stroke-width="3" fill="none" />
  <circle cx="230" cy="340" r="4" fill="#3498db" />
  <circle cx="250" cy="325" r="4" fill="#3498db" />
  <circle cx="270" cy="335" r="4" fill="#3498db" />
  <circle cx="290" cy="320" r="4" fill="#3498db" />
  <circle cx="310" cy="330" r="4" fill="#3498db" />
  <circle cx="330" cy="315" r="4" fill="#3498db" />
  <circle cx="350" cy="340" r="4" fill="#3498db" />
  
  <!-- Connectors and Ports -->
  <rect x="200" y="420" width="30" height="12" rx="2" fill="#7f8c8d" />
  <rect x="250" y="420" width="30" height="12" rx="2" fill="#7f8c8d" />
  <rect x="300" y="420" width="30" height="12" rx="2" fill="#7f8c8d" />
  <rect x="350" y="420" width="30" height="12" rx="2" fill="#7f8c8d" />
  <rect x="400" y="420" width="30" height="12" rx="2" fill="#7f8c8d" />
  <rect x="450" y="420" width="30" height="12" rx="2" fill="#7f8c8d" />
  <rect x="500" y="420" width="30" height="12" rx="2" fill="#7f8c8d" />
  <rect x="550" y="420" width="30" height="12" rx="2" fill="#7f8c8d" />
  
  <!-- Logo -->
  <text x="300" cy="375" font-family="Arial" font-size="16" font-weight="bold" fill="#3498db">EnjoyCube Enterprise</text>
  
  <!-- Status LEDs -->
  <circle cx="605" cy="170" r="6" fill="#2ecc71" />
  <circle cx="605" cy="190" r="6" fill="#3498db" />
  <circle cx="605" cy="210" r="6" fill="#e74c3c" />
  <circle cx="605" cy="230" r="6" fill="#f1c40f" />
  <circle cx="605" cy="250" r="6" fill="#9b59b6" />
  
  <!-- Cooling Vents -->
  <rect x="580" y="160" width="30" height="3" rx="1" fill="#7f8c8d" />
  <rect x="580" y="170" width="30" height="3" rx="1" fill="#7f8c8d" />
  <rect x="580" y="180" width="30" height="3" rx="1" fill="#7f8c8d" />
  <rect x="580" y="190" width="30" height="3" rx="1" fill="#7f8c8d" />
  <rect x="580" y="200" width="30" height="3" rx="1" fill="#7f8c8d" />
  <rect x="580" y="210" width="30" height="3" rx="1" fill="#7f8c8d" />
  <rect x="580" y="220" width="30" height="3" rx="1" fill="#7f8c8d" />
  <rect x="580" y="230" width="30" height="3" rx="1" fill="#7f8c8d" />
  <rect x="580" y="240" width="30" height="3" rx="1" fill="#7f8c8d" />
  <rect x="580" y="250" width="30" height="3" rx="1" fill="#7f8c8d" />
  <rect x="580" y="260" width="30" height="3" rx="1" fill="#7f8c8d" />
  <rect x="580" y="270" width="30" height="3" rx="1" fill="#7f8c8d" />
  <rect x="580" y="280" width="30" height="3" rx="1" fill="#7f8c8d" />
  
  <!-- Shadow -->
  <ellipse cx="400" cy="480" rx="220" ry="25" fill="#34495e" opacity="0.3" />
</svg>
